<mxfile host="app.diagrams.net" modified="2024-02-11T10:07:14.354Z" agent="Mozilla/5.0 (Windows NT 10.0; Win64; x64) AppleWebKit/537.36 (KHTML, like Gecko) Chrome/120.0.0.0 Safari/537.36 OPR/106.0.0.0" etag="kWnab7iKYVi30D7oXC6x" version="22.1.21" type="github">
  <diagram id="C5RBs43oDa-KdzZeNtuy" name="Page-1">
    <mxGraphModel dx="1798" dy="820" grid="1" gridSize="10" guides="1" tooltips="1" connect="1" arrows="1" fold="1" page="1" pageScale="1" pageWidth="827" pageHeight="1169" math="0" shadow="0">
      <root>
        <mxCell id="WIyWlLk6GJQsqaUBKTNV-0" />
        <mxCell id="WIyWlLk6GJQsqaUBKTNV-1" parent="WIyWlLk6GJQsqaUBKTNV-0" />
        <mxCell id="lKIkK_EHrmWY2n1t3ad0-4" value="" style="edgeStyle=orthogonalEdgeStyle;rounded=0;orthogonalLoop=1;jettySize=auto;html=1;" edge="1" parent="WIyWlLk6GJQsqaUBKTNV-1" source="lKIkK_EHrmWY2n1t3ad0-0" target="lKIkK_EHrmWY2n1t3ad0-3">
          <mxGeometry relative="1" as="geometry" />
        </mxCell>
        <mxCell id="lKIkK_EHrmWY2n1t3ad0-0" value="&lt;b&gt;LOG IN&lt;/b&gt;" style="strokeWidth=2;html=1;shape=mxgraph.flowchart.start_1;whiteSpace=wrap;" vertex="1" parent="WIyWlLk6GJQsqaUBKTNV-1">
          <mxGeometry x="160" y="50" width="100" height="60" as="geometry" />
        </mxCell>
        <mxCell id="lKIkK_EHrmWY2n1t3ad0-6" value="" style="edgeStyle=orthogonalEdgeStyle;rounded=0;orthogonalLoop=1;jettySize=auto;html=1;" edge="1" parent="WIyWlLk6GJQsqaUBKTNV-1" source="lKIkK_EHrmWY2n1t3ad0-3" target="lKIkK_EHrmWY2n1t3ad0-5">
          <mxGeometry relative="1" as="geometry" />
        </mxCell>
        <mxCell id="lKIkK_EHrmWY2n1t3ad0-12" value="" style="edgeStyle=orthogonalEdgeStyle;rounded=0;orthogonalLoop=1;jettySize=auto;html=1;" edge="1" parent="WIyWlLk6GJQsqaUBKTNV-1" source="lKIkK_EHrmWY2n1t3ad0-3" target="lKIkK_EHrmWY2n1t3ad0-11">
          <mxGeometry relative="1" as="geometry" />
        </mxCell>
        <mxCell id="lKIkK_EHrmWY2n1t3ad0-3" value="&lt;b&gt;Check Dashboard&lt;/b&gt;" style="rhombus;whiteSpace=wrap;html=1;strokeWidth=2;" vertex="1" parent="WIyWlLk6GJQsqaUBKTNV-1">
          <mxGeometry x="160" y="180" width="100" height="100" as="geometry" />
        </mxCell>
        <mxCell id="lKIkK_EHrmWY2n1t3ad0-5" value="&lt;b&gt;View Event Calendar&lt;br&gt;&lt;/b&gt;" style="whiteSpace=wrap;html=1;strokeWidth=2;" vertex="1" parent="WIyWlLk6GJQsqaUBKTNV-1">
          <mxGeometry x="140" y="380" width="140" height="60" as="geometry" />
        </mxCell>
        <mxCell id="lKIkK_EHrmWY2n1t3ad0-16" value="" style="edgeStyle=orthogonalEdgeStyle;rounded=0;orthogonalLoop=1;jettySize=auto;html=1;" edge="1" parent="WIyWlLk6GJQsqaUBKTNV-1" source="lKIkK_EHrmWY2n1t3ad0-11" target="lKIkK_EHrmWY2n1t3ad0-15">
          <mxGeometry relative="1" as="geometry" />
        </mxCell>
        <mxCell id="lKIkK_EHrmWY2n1t3ad0-22" value="" style="edgeStyle=orthogonalEdgeStyle;rounded=0;orthogonalLoop=1;jettySize=auto;html=1;" edge="1" parent="WIyWlLk6GJQsqaUBKTNV-1" source="lKIkK_EHrmWY2n1t3ad0-11" target="lKIkK_EHrmWY2n1t3ad0-21">
          <mxGeometry relative="1" as="geometry" />
        </mxCell>
        <mxCell id="lKIkK_EHrmWY2n1t3ad0-11" value="&lt;b&gt;Check Reservation&lt;/b&gt;" style="rhombus;whiteSpace=wrap;html=1;strokeWidth=2;" vertex="1" parent="WIyWlLk6GJQsqaUBKTNV-1">
          <mxGeometry x="460" y="180" width="100" height="100" as="geometry" />
        </mxCell>
        <mxCell id="lKIkK_EHrmWY2n1t3ad0-26" value="" style="edgeStyle=orthogonalEdgeStyle;rounded=0;orthogonalLoop=1;jettySize=auto;html=1;" edge="1" parent="WIyWlLk6GJQsqaUBKTNV-1" source="lKIkK_EHrmWY2n1t3ad0-15" target="lKIkK_EHrmWY2n1t3ad0-25">
          <mxGeometry relative="1" as="geometry" />
        </mxCell>
        <mxCell id="lKIkK_EHrmWY2n1t3ad0-53" value="" style="edgeStyle=orthogonalEdgeStyle;rounded=0;orthogonalLoop=1;jettySize=auto;html=1;" edge="1" parent="WIyWlLk6GJQsqaUBKTNV-1" source="lKIkK_EHrmWY2n1t3ad0-15" target="lKIkK_EHrmWY2n1t3ad0-52">
          <mxGeometry relative="1" as="geometry" />
        </mxCell>
        <mxCell id="lKIkK_EHrmWY2n1t3ad0-15" value="&lt;b&gt;Check Pending Reservation&lt;br&gt;Request&lt;br&gt;&lt;/b&gt;" style="rhombus;whiteSpace=wrap;html=1;strokeWidth=2;" vertex="1" parent="WIyWlLk6GJQsqaUBKTNV-1">
          <mxGeometry x="440" y="350" width="140" height="120" as="geometry" />
        </mxCell>
        <mxCell id="lKIkK_EHrmWY2n1t3ad0-77" value="" style="edgeStyle=orthogonalEdgeStyle;rounded=0;orthogonalLoop=1;jettySize=auto;html=1;" edge="1" parent="WIyWlLk6GJQsqaUBKTNV-1" source="lKIkK_EHrmWY2n1t3ad0-21" target="lKIkK_EHrmWY2n1t3ad0-76">
          <mxGeometry relative="1" as="geometry" />
        </mxCell>
        <mxCell id="lKIkK_EHrmWY2n1t3ad0-21" value="&lt;b&gt;Check&lt;br&gt;Services&lt;/b&gt;" style="rhombus;whiteSpace=wrap;html=1;strokeWidth=2;" vertex="1" parent="WIyWlLk6GJQsqaUBKTNV-1">
          <mxGeometry x="1690" y="180" width="100" height="100" as="geometry" />
        </mxCell>
        <mxCell id="lKIkK_EHrmWY2n1t3ad0-28" value="" style="edgeStyle=orthogonalEdgeStyle;rounded=0;orthogonalLoop=1;jettySize=auto;html=1;" edge="1" parent="WIyWlLk6GJQsqaUBKTNV-1" source="lKIkK_EHrmWY2n1t3ad0-25" target="lKIkK_EHrmWY2n1t3ad0-27">
          <mxGeometry relative="1" as="geometry" />
        </mxCell>
        <mxCell id="lKIkK_EHrmWY2n1t3ad0-30" value="" style="edgeStyle=orthogonalEdgeStyle;rounded=0;orthogonalLoop=1;jettySize=auto;html=1;" edge="1" parent="WIyWlLk6GJQsqaUBKTNV-1" source="lKIkK_EHrmWY2n1t3ad0-25" target="lKIkK_EHrmWY2n1t3ad0-29">
          <mxGeometry relative="1" as="geometry" />
        </mxCell>
        <mxCell id="lKIkK_EHrmWY2n1t3ad0-25" value="&lt;b&gt;View Reservation Request&lt;br&gt;&lt;/b&gt;" style="rhombus;whiteSpace=wrap;html=1;strokeWidth=2;" vertex="1" parent="WIyWlLk6GJQsqaUBKTNV-1">
          <mxGeometry x="630" y="350" width="140" height="120" as="geometry" />
        </mxCell>
        <mxCell id="lKIkK_EHrmWY2n1t3ad0-32" value="" style="edgeStyle=orthogonalEdgeStyle;rounded=0;orthogonalLoop=1;jettySize=auto;html=1;" edge="1" parent="WIyWlLk6GJQsqaUBKTNV-1" source="lKIkK_EHrmWY2n1t3ad0-27" target="lKIkK_EHrmWY2n1t3ad0-31">
          <mxGeometry relative="1" as="geometry" />
        </mxCell>
        <mxCell id="lKIkK_EHrmWY2n1t3ad0-34" value="" style="edgeStyle=orthogonalEdgeStyle;rounded=0;orthogonalLoop=1;jettySize=auto;html=1;" edge="1" parent="WIyWlLk6GJQsqaUBKTNV-1" source="lKIkK_EHrmWY2n1t3ad0-27" target="lKIkK_EHrmWY2n1t3ad0-33">
          <mxGeometry relative="1" as="geometry" />
        </mxCell>
        <mxCell id="lKIkK_EHrmWY2n1t3ad0-27" value="&lt;b&gt;Edit Reservation Request&lt;br&gt;&lt;/b&gt;" style="rhombus;whiteSpace=wrap;html=1;strokeWidth=2;" vertex="1" parent="WIyWlLk6GJQsqaUBKTNV-1">
          <mxGeometry x="820" y="350" width="140" height="120" as="geometry" />
        </mxCell>
        <mxCell id="lKIkK_EHrmWY2n1t3ad0-29" value="View Reservation&lt;br&gt;Details" style="whiteSpace=wrap;html=1;strokeWidth=2;" vertex="1" parent="WIyWlLk6GJQsqaUBKTNV-1">
          <mxGeometry x="640" y="525" width="120" height="60" as="geometry" />
        </mxCell>
        <mxCell id="lKIkK_EHrmWY2n1t3ad0-31" value="Edit Reservation Details" style="whiteSpace=wrap;html=1;strokeWidth=2;" vertex="1" parent="WIyWlLk6GJQsqaUBKTNV-1">
          <mxGeometry x="830" y="525" width="120" height="60" as="geometry" />
        </mxCell>
        <mxCell id="lKIkK_EHrmWY2n1t3ad0-36" value="" style="edgeStyle=orthogonalEdgeStyle;rounded=0;orthogonalLoop=1;jettySize=auto;html=1;" edge="1" parent="WIyWlLk6GJQsqaUBKTNV-1" source="lKIkK_EHrmWY2n1t3ad0-33" target="lKIkK_EHrmWY2n1t3ad0-35">
          <mxGeometry relative="1" as="geometry" />
        </mxCell>
        <mxCell id="lKIkK_EHrmWY2n1t3ad0-38" value="" style="edgeStyle=orthogonalEdgeStyle;rounded=0;orthogonalLoop=1;jettySize=auto;html=1;" edge="1" parent="WIyWlLk6GJQsqaUBKTNV-1" source="lKIkK_EHrmWY2n1t3ad0-33" target="lKIkK_EHrmWY2n1t3ad0-37">
          <mxGeometry relative="1" as="geometry" />
        </mxCell>
        <mxCell id="lKIkK_EHrmWY2n1t3ad0-33" value="&lt;b&gt;Call Status&lt;br&gt;&lt;/b&gt;" style="rhombus;whiteSpace=wrap;html=1;strokeWidth=2;" vertex="1" parent="WIyWlLk6GJQsqaUBKTNV-1">
          <mxGeometry x="1040" y="350" width="140" height="120" as="geometry" />
        </mxCell>
        <mxCell id="lKIkK_EHrmWY2n1t3ad0-35" value="Create a Call Status" style="whiteSpace=wrap;html=1;strokeWidth=2;" vertex="1" parent="WIyWlLk6GJQsqaUBKTNV-1">
          <mxGeometry x="1050" y="525" width="120" height="60" as="geometry" />
        </mxCell>
        <mxCell id="lKIkK_EHrmWY2n1t3ad0-47" value="" style="edgeStyle=orthogonalEdgeStyle;rounded=0;orthogonalLoop=1;jettySize=auto;html=1;" edge="1" parent="WIyWlLk6GJQsqaUBKTNV-1" source="lKIkK_EHrmWY2n1t3ad0-37" target="lKIkK_EHrmWY2n1t3ad0-46">
          <mxGeometry relative="1" as="geometry" />
        </mxCell>
        <mxCell id="lKIkK_EHrmWY2n1t3ad0-49" value="" style="edgeStyle=orthogonalEdgeStyle;rounded=0;orthogonalLoop=1;jettySize=auto;html=1;" edge="1" parent="WIyWlLk6GJQsqaUBKTNV-1" source="lKIkK_EHrmWY2n1t3ad0-37" target="lKIkK_EHrmWY2n1t3ad0-48">
          <mxGeometry relative="1" as="geometry" />
        </mxCell>
        <mxCell id="lKIkK_EHrmWY2n1t3ad0-37" value="&lt;b&gt;Approve OR Decline&lt;br&gt;&lt;/b&gt;" style="rhombus;whiteSpace=wrap;html=1;strokeWidth=2;" vertex="1" parent="WIyWlLk6GJQsqaUBKTNV-1">
          <mxGeometry x="1260" y="350" width="140" height="120" as="geometry" />
        </mxCell>
        <mxCell id="lKIkK_EHrmWY2n1t3ad0-46" value="Request Will Move On Approve Reserevation Request" style="whiteSpace=wrap;html=1;strokeWidth=2;" vertex="1" parent="WIyWlLk6GJQsqaUBKTNV-1">
          <mxGeometry x="1270" y="525" width="120" height="60" as="geometry" />
        </mxCell>
        <mxCell id="lKIkK_EHrmWY2n1t3ad0-48" value="Request Will Move to History" style="whiteSpace=wrap;html=1;strokeWidth=2;" vertex="1" parent="WIyWlLk6GJQsqaUBKTNV-1">
          <mxGeometry x="1490" y="380" width="120" height="60" as="geometry" />
        </mxCell>
        <mxCell id="lKIkK_EHrmWY2n1t3ad0-66" style="edgeStyle=orthogonalEdgeStyle;rounded=0;orthogonalLoop=1;jettySize=auto;html=1;exitX=1;exitY=0.5;exitDx=0;exitDy=0;entryX=0;entryY=0.5;entryDx=0;entryDy=0;" edge="1" parent="WIyWlLk6GJQsqaUBKTNV-1" source="lKIkK_EHrmWY2n1t3ad0-52" target="lKIkK_EHrmWY2n1t3ad0-56">
          <mxGeometry relative="1" as="geometry" />
        </mxCell>
        <mxCell id="lKIkK_EHrmWY2n1t3ad0-69" value="" style="edgeStyle=orthogonalEdgeStyle;rounded=0;orthogonalLoop=1;jettySize=auto;html=1;" edge="1" parent="WIyWlLk6GJQsqaUBKTNV-1" source="lKIkK_EHrmWY2n1t3ad0-52" target="lKIkK_EHrmWY2n1t3ad0-68">
          <mxGeometry relative="1" as="geometry" />
        </mxCell>
        <mxCell id="lKIkK_EHrmWY2n1t3ad0-52" value="&lt;b&gt;Check Approve Reservation&lt;br&gt;&lt;/b&gt;" style="rhombus;whiteSpace=wrap;html=1;strokeWidth=2;" vertex="1" parent="WIyWlLk6GJQsqaUBKTNV-1">
          <mxGeometry x="440" y="620" width="140" height="120" as="geometry" />
        </mxCell>
        <mxCell id="lKIkK_EHrmWY2n1t3ad0-54" value="" style="edgeStyle=orthogonalEdgeStyle;rounded=0;orthogonalLoop=1;jettySize=auto;html=1;" edge="1" parent="WIyWlLk6GJQsqaUBKTNV-1" source="lKIkK_EHrmWY2n1t3ad0-56" target="lKIkK_EHrmWY2n1t3ad0-59">
          <mxGeometry relative="1" as="geometry" />
        </mxCell>
        <mxCell id="lKIkK_EHrmWY2n1t3ad0-55" value="" style="edgeStyle=orthogonalEdgeStyle;rounded=0;orthogonalLoop=1;jettySize=auto;html=1;" edge="1" parent="WIyWlLk6GJQsqaUBKTNV-1" source="lKIkK_EHrmWY2n1t3ad0-56" target="lKIkK_EHrmWY2n1t3ad0-60">
          <mxGeometry relative="1" as="geometry" />
        </mxCell>
        <mxCell id="lKIkK_EHrmWY2n1t3ad0-56" value="&lt;b&gt;View Reservation Request&lt;br&gt;&lt;/b&gt;" style="rhombus;whiteSpace=wrap;html=1;strokeWidth=2;" vertex="1" parent="WIyWlLk6GJQsqaUBKTNV-1">
          <mxGeometry x="640" y="620" width="140" height="120" as="geometry" />
        </mxCell>
        <mxCell id="lKIkK_EHrmWY2n1t3ad0-57" value="" style="edgeStyle=orthogonalEdgeStyle;rounded=0;orthogonalLoop=1;jettySize=auto;html=1;" edge="1" parent="WIyWlLk6GJQsqaUBKTNV-1" source="lKIkK_EHrmWY2n1t3ad0-59" target="lKIkK_EHrmWY2n1t3ad0-61">
          <mxGeometry relative="1" as="geometry" />
        </mxCell>
        <mxCell id="lKIkK_EHrmWY2n1t3ad0-58" value="" style="edgeStyle=orthogonalEdgeStyle;rounded=0;orthogonalLoop=1;jettySize=auto;html=1;" edge="1" parent="WIyWlLk6GJQsqaUBKTNV-1" source="lKIkK_EHrmWY2n1t3ad0-59" target="lKIkK_EHrmWY2n1t3ad0-64">
          <mxGeometry relative="1" as="geometry" />
        </mxCell>
        <mxCell id="lKIkK_EHrmWY2n1t3ad0-59" value="&lt;b&gt;Edit Reservation Request&lt;br&gt;&lt;/b&gt;" style="rhombus;whiteSpace=wrap;html=1;strokeWidth=2;" vertex="1" parent="WIyWlLk6GJQsqaUBKTNV-1">
          <mxGeometry x="830" y="620" width="140" height="120" as="geometry" />
        </mxCell>
        <mxCell id="lKIkK_EHrmWY2n1t3ad0-60" value="VIew Reservation&lt;br&gt;Details" style="whiteSpace=wrap;html=1;strokeWidth=2;" vertex="1" parent="WIyWlLk6GJQsqaUBKTNV-1">
          <mxGeometry x="650" y="795" width="120" height="60" as="geometry" />
        </mxCell>
        <mxCell id="lKIkK_EHrmWY2n1t3ad0-61" value="Edit Reservation Details" style="whiteSpace=wrap;html=1;strokeWidth=2;" vertex="1" parent="WIyWlLk6GJQsqaUBKTNV-1">
          <mxGeometry x="840" y="795" width="120" height="60" as="geometry" />
        </mxCell>
        <mxCell id="lKIkK_EHrmWY2n1t3ad0-62" value="" style="edgeStyle=orthogonalEdgeStyle;rounded=0;orthogonalLoop=1;jettySize=auto;html=1;" edge="1" parent="WIyWlLk6GJQsqaUBKTNV-1" source="lKIkK_EHrmWY2n1t3ad0-64" target="lKIkK_EHrmWY2n1t3ad0-65">
          <mxGeometry relative="1" as="geometry" />
        </mxCell>
        <mxCell id="lKIkK_EHrmWY2n1t3ad0-64" value="&lt;b&gt;Call Status&lt;br&gt;&lt;/b&gt;" style="rhombus;whiteSpace=wrap;html=1;strokeWidth=2;" vertex="1" parent="WIyWlLk6GJQsqaUBKTNV-1">
          <mxGeometry x="1050" y="620" width="140" height="120" as="geometry" />
        </mxCell>
        <mxCell id="lKIkK_EHrmWY2n1t3ad0-65" value="Create a Call Status" style="whiteSpace=wrap;html=1;strokeWidth=2;" vertex="1" parent="WIyWlLk6GJQsqaUBKTNV-1">
          <mxGeometry x="1060" y="795" width="120" height="60" as="geometry" />
        </mxCell>
        <mxCell id="lKIkK_EHrmWY2n1t3ad0-71" value="" style="edgeStyle=orthogonalEdgeStyle;rounded=0;orthogonalLoop=1;jettySize=auto;html=1;" edge="1" parent="WIyWlLk6GJQsqaUBKTNV-1" source="lKIkK_EHrmWY2n1t3ad0-68" target="lKIkK_EHrmWY2n1t3ad0-70">
          <mxGeometry relative="1" as="geometry" />
        </mxCell>
        <mxCell id="lKIkK_EHrmWY2n1t3ad0-75" style="edgeStyle=orthogonalEdgeStyle;rounded=0;orthogonalLoop=1;jettySize=auto;html=1;exitX=0.5;exitY=1;exitDx=0;exitDy=0;entryX=0.5;entryY=0;entryDx=0;entryDy=0;" edge="1" parent="WIyWlLk6GJQsqaUBKTNV-1" source="lKIkK_EHrmWY2n1t3ad0-68" target="lKIkK_EHrmWY2n1t3ad0-21">
          <mxGeometry relative="1" as="geometry">
            <Array as="points">
              <mxPoint x="510" y="1020" />
              <mxPoint x="30" y="1020" />
              <mxPoint x="30" y="20" />
              <mxPoint x="1740" y="20" />
            </Array>
          </mxGeometry>
        </mxCell>
        <mxCell id="lKIkK_EHrmWY2n1t3ad0-68" value="&lt;b&gt;Check History&lt;br&gt;&lt;/b&gt;" style="rhombus;whiteSpace=wrap;html=1;strokeWidth=2;" vertex="1" parent="WIyWlLk6GJQsqaUBKTNV-1">
          <mxGeometry x="440" y="880" width="140" height="120" as="geometry" />
        </mxCell>
        <mxCell id="lKIkK_EHrmWY2n1t3ad0-70" value="" style="whiteSpace=wrap;html=1;strokeWidth=2;" vertex="1" parent="WIyWlLk6GJQsqaUBKTNV-1">
          <mxGeometry x="650" y="910" width="120" height="60" as="geometry" />
        </mxCell>
        <mxCell id="lKIkK_EHrmWY2n1t3ad0-79" value="" style="edgeStyle=orthogonalEdgeStyle;rounded=0;orthogonalLoop=1;jettySize=auto;html=1;" edge="1" parent="WIyWlLk6GJQsqaUBKTNV-1" source="lKIkK_EHrmWY2n1t3ad0-76" target="lKIkK_EHrmWY2n1t3ad0-78">
          <mxGeometry relative="1" as="geometry" />
        </mxCell>
        <mxCell id="lKIkK_EHrmWY2n1t3ad0-83" value="" style="edgeStyle=orthogonalEdgeStyle;rounded=0;orthogonalLoop=1;jettySize=auto;html=1;" edge="1" parent="WIyWlLk6GJQsqaUBKTNV-1" source="lKIkK_EHrmWY2n1t3ad0-76" target="lKIkK_EHrmWY2n1t3ad0-82">
          <mxGeometry relative="1" as="geometry" />
        </mxCell>
        <mxCell id="lKIkK_EHrmWY2n1t3ad0-76" value="&lt;b&gt;View Menu&lt;/b&gt;" style="rhombus;whiteSpace=wrap;html=1;strokeWidth=2;" vertex="1" parent="WIyWlLk6GJQsqaUBKTNV-1">
          <mxGeometry x="1690" y="360" width="100" height="100" as="geometry" />
        </mxCell>
        <mxCell id="lKIkK_EHrmWY2n1t3ad0-81" value="" style="edgeStyle=orthogonalEdgeStyle;rounded=0;orthogonalLoop=1;jettySize=auto;html=1;" edge="1" parent="WIyWlLk6GJQsqaUBKTNV-1" source="lKIkK_EHrmWY2n1t3ad0-78" target="lKIkK_EHrmWY2n1t3ad0-80">
          <mxGeometry relative="1" as="geometry" />
        </mxCell>
        <mxCell id="lKIkK_EHrmWY2n1t3ad0-85" value="" style="edgeStyle=orthogonalEdgeStyle;rounded=0;orthogonalLoop=1;jettySize=auto;html=1;" edge="1" parent="WIyWlLk6GJQsqaUBKTNV-1" source="lKIkK_EHrmWY2n1t3ad0-78" target="lKIkK_EHrmWY2n1t3ad0-84">
          <mxGeometry relative="1" as="geometry" />
        </mxCell>
        <mxCell id="lKIkK_EHrmWY2n1t3ad0-78" value="&lt;b&gt;Edit Menu&lt;/b&gt;" style="rhombus;whiteSpace=wrap;html=1;strokeWidth=2;" vertex="1" parent="WIyWlLk6GJQsqaUBKTNV-1">
          <mxGeometry x="1690" y="540" width="100" height="100" as="geometry" />
        </mxCell>
        <mxCell id="lKIkK_EHrmWY2n1t3ad0-87" value="" style="edgeStyle=orthogonalEdgeStyle;rounded=0;orthogonalLoop=1;jettySize=auto;html=1;" edge="1" parent="WIyWlLk6GJQsqaUBKTNV-1" source="lKIkK_EHrmWY2n1t3ad0-80" target="lKIkK_EHrmWY2n1t3ad0-86">
          <mxGeometry relative="1" as="geometry" />
        </mxCell>
        <mxCell id="lKIkK_EHrmWY2n1t3ad0-80" value="&lt;b&gt;Add Menu&lt;/b&gt;" style="rhombus;whiteSpace=wrap;html=1;strokeWidth=2;" vertex="1" parent="WIyWlLk6GJQsqaUBKTNV-1">
          <mxGeometry x="1690" y="720" width="100" height="100" as="geometry" />
        </mxCell>
        <mxCell id="lKIkK_EHrmWY2n1t3ad0-82" value="View Menu Details" style="whiteSpace=wrap;html=1;strokeWidth=2;" vertex="1" parent="WIyWlLk6GJQsqaUBKTNV-1">
          <mxGeometry x="1860" y="380" width="120" height="60" as="geometry" />
        </mxCell>
        <mxCell id="lKIkK_EHrmWY2n1t3ad0-84" value="Edit Menu Details" style="whiteSpace=wrap;html=1;strokeWidth=2;" vertex="1" parent="WIyWlLk6GJQsqaUBKTNV-1">
          <mxGeometry x="1860" y="560" width="120" height="60" as="geometry" />
        </mxCell>
        <mxCell id="lKIkK_EHrmWY2n1t3ad0-86" value="Add New Menu" style="whiteSpace=wrap;html=1;strokeWidth=2;" vertex="1" parent="WIyWlLk6GJQsqaUBKTNV-1">
          <mxGeometry x="1860" y="740" width="120" height="60" as="geometry" />
        </mxCell>
      </root>
    </mxGraphModel>
  </diagram>
</mxfile>
